<svg xmlns="http://www.w3.org/2000/svg" version="1.1" xmlns:xlink="http://www.w3.org/1999/xlink" xmlns:svgjs="http://svgjs.com/svgjs" width="1000" height="1000"><svg xmlns="http://www.w3.org/2000/svg" version="1.1" xmlns:xlink="http://www.w3.org/1999/xlink" xmlns:svgjs="http://svgjs.com/svgjs" width="1000" height="1000"><rect width="1000" height="1000" rx="200" ry="200" fill="#ffffff"></rect><g transform="matrix(2.5,0,0,2.5,0.000011444091796875,-0.000011444091796875)"><svg xmlns="http://www.w3.org/2000/svg" version="1.1" xmlns:xlink="http://www.w3.org/1999/xlink" xmlns:svgjs="http://svgjs.com/svgjs" width="400" height="400"><svg id="SvgjsSvg1000" xmlns="http://www.w3.org/2000/svg" viewBox="0 0 400 400"><path d="m89.1,286.98v6.52h32.62c11.35,0,20.74-1.83,29.1-5.45,8.35-3.61,15.33-8.87,22.06-15.24,6.04-5.71,12.09-12.55,18.72-20.06l2.03-2.29c7.51-8.48,16.03-17.99,26.71-28.41,10.52-10.26,25.06-15.53,40.19-15.53h50.37v-100.02h-32.62c-11.35,0-20.74,1.83-29.1,5.45-8.35,3.61-15.33,8.87-22.06,15.23-6.04,5.72-12.09,12.56-18.72,20.07l-2.03,2.29c-7.51,8.48-16.03,17.99-26.71,28.41-10.52,10.26-25.06,15.53-40.19,15.53h-50.37v93.5Z" style="stroke-width:0px;"></path></svg></svg></g></svg><style>@media (prefers-color-scheme: light) { :root { filter: none; } }
</style></svg>