<?xml version="1.0" standalone="no"?>
<!DOCTYPE svg PUBLIC "-//W3C//DTD SVG 20010904//EN"
 "http://www.w3.org/TR/2001/REC-SVG-20010904/DTD/svg10.dtd">
<svg version="1.0" xmlns="http://www.w3.org/2000/svg"
 width="1668.000000pt" height="1668.000000pt" viewBox="0 0 1668.000000 1668.000000"
 preserveAspectRatio="xMidYMid meet">
<metadata>
Created by potrace 1.14, written by Peter Selinger 2001-2017
</metadata>
<g transform="translate(0.000000,1668.000000) scale(0.100000,-0.100000)"
fill="#000000" stroke="none">
<path d="M11394 12230 c-290 -15 -626 -79 -859 -164 -245 -90 -570 -276 -780
-446 -294 -237 -490 -437 -1080 -1100 -481 -542 -642 -716 -950 -1029 -293
-296 -389 -381 -557 -492 -329 -215 -711 -343 -1133 -379 -72 -6 -559 -10
-1217 -10 l-1098 0 0 -2090 0 -2090 693 0 c708 0 961 8 1159 36 356 49 693
161 977 324 134 77 308 199 448 314 192 158 578 557 999 1031 219 247 482 539
584 649 248 269 657 679 752 755 266 213 613 379 954 455 265 60 237 59 1509
65 l1170 6 0 2085 0 2085 -710 1 c-390 1 -778 -2 -861 -6z"/>
</g>
</svg>
